<?xml version="1.0" encoding="utf-8"?>
<!-- Svg Vector Icons : http://www.onlinewebfonts.com/icon -->
<!DOCTYPE svg PUBLIC "-//W3C//DTD SVG 1.1//EN" "http://www.w3.org/Graphics/SVG/1.1/DTD/svg11.dtd">
<svg version="1.1" xmlns="http://www.w3.org/2000/svg" xmlns:xlink="http://www.w3.org/1999/xlink" x="0px" y="0px" viewBox="0 0 256 256" enable-background="new 0 0 256 256" xml:space="preserve">
<metadata> Svg Vector Icons : http://www.onlinewebfonts.com/icon </metadata>
<g><g><g><path fill="#000000" d="M124,10.3c-9.6,2-16.3,12-14.5,21.5c0.5,2.9,1.9,6.2,3.4,8.2c0.6,0.8,0.4,1.2-3,5.1c-4.3,4.9-7.7,9.6-9.6,13.3c-0.7,1.5-1.4,2.7-1.5,2.7c-0.1,0-0.9-0.6-1.7-1.5c-2.6-2.4-6-5-7.8-6l-1.8-0.9l1.2-2.5c2.2-4.8,1.9-11.2-0.8-16.5c-1.4-2.7-5.4-6.4-8.7-7.9c-5.5-2.6-12.6-2.2-17.7,1c-7.6,4.8-10.7,13.7-7.9,22.3c1.5,4.7,6.7,9.9,11.3,11.4l1.7,0.6l0.3,3.8c1.1,13.6,7.2,23.9,17.5,29.4c5.5,3,14,5.1,20.6,5.1c1.7,0,3.3,0.2,3.6,0.4c0.5,0.3,0.5,1.5,0.3,4.8l-0.3,4.5H102c-7.7,0-11.6,0.7-15.6,2.9c-11.3,6-13.7,19.6-5,28.4c2.6,2.6,7.7,5.4,10.8,5.9c1.2,0.1,2.1,0.4,2.1,0.6c0,0.1-4.2,4.5-9.4,9.7c-9.6,9.8-11.5,12.3-12.7,17c-0.5,1.8-0.7,2-1.8,2c-2.5,0-7.3,1.8-10.1,3.9c-7.4,5.4-9.8,14.7-5.9,22.7c1.2,2.4,3.7,5.4,5.7,6.8l1.1,0.7l-3.2,3.8c-6.2,7.4-10.3,15.8-10.3,21.2c0,3.4,1.2,6.2,3.5,8.3c3.8,3.5-1.5,3.3,76.8,3.3s73,0.2,76.8-3.3c2.3-2.1,3.5-4.9,3.5-8.3c0-5.4-4.1-13.7-10.3-21.2l-3.1-3.7l1.1-0.7c1.9-1.3,4.5-4.4,5.7-6.8c3.9-8,1.5-17.2-5.9-22.7c-2.8-2-7.6-3.9-10.1-3.9c-1.2,0-1.4-0.2-1.8-2c-1.2-4.7-3.1-7.2-12.7-17c-5.2-5.2-9.4-9.6-9.4-9.7c0-0.1,0.9-0.4,2.1-0.6c3.1-0.5,8.3-3.3,10.8-5.9c8.7-8.8,6.3-22.4-5-28.4c-4-2.1-7.9-2.9-15.6-2.9h-6.5l-0.3-4.5c-0.2-3.4-0.2-4.5,0.3-4.8c0.3-0.2,1.9-0.4,3.6-0.4c6.6,0,15.1-2.1,20.6-5.1c10.3-5.4,16.4-15.8,17.5-29.4l0.3-3.8l1.7-0.6c2.9-0.9,6.6-3.7,8.6-6.5c4.3-5.9,4.9-13.1,1.6-19.7c-5.7-11.3-20.9-13.7-29.9-4.7c-2.7,2.7-3.8,4.6-4.9,8.6c-1.1,3.6-0.7,8.5,0.9,12l1.2,2.5l-1.8,0.9c-1.8,1-5.3,3.6-7.8,6c-0.8,0.8-1.6,1.5-1.7,1.5s-0.8-1.2-1.5-2.7c-1.9-3.6-5.3-8.4-9.6-13.3c-3.4-3.8-3.6-4.2-3-5.1c8.8-11.7,0.9-29-13.7-29.9C127.5,9.9,125,10,124,10.3z M133,20.8c0.8,0.6,2,1.8,2.8,2.7c1.1,1.5,1.2,2.1,1.2,5.3c0,3.3-0.1,3.7-1.4,5.4c-4.2,5.2-10.9,5.2-15.1,0c-1.5-1.8-2.1-4.9-1.5-7.9c0.4-1.9,2.9-5,5-6C126.2,19.1,131,19.4,133,20.8z M76.2,35c5.3,3,5.9,11,1.1,15.1c-4.5,3.8-11.4,2.4-14.3-2.9c-0.9-1.7-1.1-2.6-0.9-4.8C62.6,35.1,69.8,31.3,76.2,35z M188.9,34.5c6.2,3.2,6.8,12,1,16.1c-6.1,4.3-14.4-0.2-14.4-7.8C175.5,35.9,182.9,31.4,188.9,34.5z M128,47.4c1.4,0,3.5-0.2,4.6-0.4l2-0.4l3,3.2c5.8,6,10.4,13.1,13.2,20.3c1.5,3.9,3.2,5.6,5.5,5.6c2,0,3.3-1,5.6-4.7c3.1-4.9,7.5-8.7,12.3-10.7c1.5-0.6,1.8-0.6,3.6,0l1.8,0.7v2.6c0,3.6-1.6,9.8-3.4,13.1c-2.1,4.1-5.6,7.3-10.2,9.5c-7.2,3.5-7.7,3.5-38.2,3.5s-30.9,0-38.2-3.5c-4.6-2.2-8-5.4-10.2-9.5c-1.8-3.4-3.4-9.6-3.4-13.1v-2.6l1.8-0.7c1.7-0.6,2-0.6,3.6,0c4.8,2,9.2,5.8,12.3,10.7c2.4,3.6,3.6,4.7,5.6,4.7c2.3,0,4-1.8,5.5-5.6c2.8-7.2,7.4-14.3,13.2-20.3l3-3.2l2,0.4C124.5,47.2,126.6,47.4,128,47.4z M137.7,102.6c0,1.6,0.1,3.7,0.3,4.6l0.3,1.8H128h-10.3l0.3-1.8c0.1-0.9,0.3-3,0.3-4.6v-2.9h9.7h9.7V102.6z M163.6,119.5c2.9,1.2,4.8,2.7,5.9,4.9c2.4,4.8,0,9.7-5.9,11.9c-1.8,0.7-5.2,0.8-35.6,0.8c-36.8,0-35.4,0.1-39.1-2.7c-1.8-1.3-3.4-4.4-3.4-6.6c0-2.1,1.6-5.3,3.4-6.6c3.7-2.7,2.1-2.6,38.9-2.6C158.4,118.7,161.9,118.8,163.6,119.5z M151.8,149.4c1,1.5,5.9,6.9,11,12c8.1,8.1,11.4,12,11.4,13.1c0,0.2-20.8,0.4-46.1,0.4s-46.1-0.1-46.1-0.4c0-1.2,3.2-4.9,11.3-13.1c5.1-5.2,10.1-10.6,11-12l1.8-2.6h22h22L151.8,149.4z M187.2,185.3c8.4,3,9.2,12.9,1.3,16.7l-2.6,1.3H128H70.1l-2.6-1.3c-7.8-3.8-7.1-13.6,1.2-16.7C71.3,184.4,184.5,184.4,187.2,185.3z M188.3,216.7c7.3,7.7,12.1,17.1,9.9,19.3c-0.9,0.9-139.6,0.9-140.4,0c-2.2-2.2,2.6-11.6,9.9-19.3l3.6-3.9H128h56.7L188.3,216.7z"/></g></g></g>
</svg>