<?xml version="1.0" encoding="utf-8"?>
<!-- Svg Vector Icons : http://www.onlinewebfonts.com/icon -->
<!DOCTYPE svg PUBLIC "-//W3C//DTD SVG 1.1//EN" "http://www.w3.org/Graphics/SVG/1.1/DTD/svg11.dtd">
<svg version="1.1" xmlns="http://www.w3.org/2000/svg" xmlns:xlink="http://www.w3.org/1999/xlink" x="0px" y="0px" viewBox="0 0 256 256" enable-background="new 0 0 256 256" xml:space="preserve">
<metadata> Svg Vector Icons : http://www.onlinewebfonts.com/icon </metadata>
<g><g><g><path fill="#000000" d="M124.3,10.4c-8.7,3.3-10.8,14-3.9,20.1c0.8,0.8,2,1.5,2.5,1.7c0.8,0.3,1,0.6,1,3.2v3l-4.5,1.4c-2.5,0.7-10.8,3.3-18.6,5.6c-14.7,4.4-16.1,5-16.1,7.4c0,1.3,1.2,3.5,2.1,3.8c1.7,0.6,3.9,0,22.3-5.4l19-5.7l19,5.7c18.3,5.5,20.6,6,22.2,5.4c0.9-0.4,2.1-2.5,2.1-3.8c0-2.4-1.5-3-16.1-7.4c-7.7-2.3-16.1-4.8-18.5-5.6l-4.5-1.4v-2.9c0-2.8,0-3,1.4-3.5c1.7-0.7,4.5-3.7,5.4-6c0.9-2.1,0.9-6.7,0-8.8c-1-2.3-2.9-4.4-5.3-5.8C131.2,9.9,126.8,9.5,124.3,10.4z M130.5,18.8c1.8,1.7,1.7,4.1,0,5.6c-3.7,3.4-8.6-2.1-5-5.6c0.7-0.7,1.7-1.2,2.5-1.2C128.9,17.7,129.8,18.1,130.5,18.8z"/><path fill="#000000" d="M65,18.4c-2.7,1-5.4,3.5-6.6,6c-1.3,2.7-1.4,6.9-0.4,9.4c1.2,2.6,3.8,5.3,6.5,6.4c1.3,0.6,2.4,1.1,2.5,1.1c0.1,0.1,5.2,24.4,5.2,24.8c0,0.2-0.3,0.4-0.6,0.4c-1.2,0-8,4.6-11,7.4c-6.4,5.9-12.3,15.5-14.3,23.5c-0.8,3.3-0.9,4.8-0.8,11.5c0.2,7,0.3,7.9,1.4,10.8l1.2,3.1l-1.4,1.6c-6.9,7.8-6,21.7,1.9,29.9l2.7,2.8l-1,2.8c-1.2,3.6-1.3,10.6-0.2,15c2.4,9.5,9.3,17.1,18.8,20.9c5.8,2.3,14.6,3.6,17.2,2.4c2-0.8,2.9-3,2.1-4.9c-0.8-1.9-1.6-2.3-6.8-2.8c-7.8-0.7-12.9-2.8-17.6-7.2c-6.9-6.4-8.7-16.7-4.4-24.5c0.9-1.6,1.6-3.2,1.6-3.7c0-1.4-1.3-2.9-3.5-3.9c-5.8-2.7-8.9-10.7-7-17.7c0.6-2.2,1.3-3.2,3.6-5.4c3.3-3.3,3.3-3.8,1-9.2c-1.7-3.8-1.7-4.2-1.9-10.4c-0.2-7.3,0.3-10.1,2.9-15.7c3.9-8.5,11.1-16.1,17.9-19.1c2.2-0.9,2.9-0.9,53.9-0.9h51.7l2.9,1.4c7.7,3.8,15,12.5,18.5,22.2c1.2,3.1,1.2,3.9,1.2,11v7.6l-1.7,3.9c-2.4,5.2-2.3,6.1,0.4,8.5c1.2,1,2.7,2.9,3.3,4.2c1.1,2,1.2,2.9,1.2,6.2c0,3.4-0.2,4.3-1.3,6.8c-1.4,3.1-3.9,5.7-6.4,6.7c-1.8,0.7-3.1,2.3-3.1,3.8c0,0.6,0.7,2.1,1.7,3.4c4.4,6.4,2.4,18-4.1,24.3c-4.5,4.4-10.3,6.8-18,7.5c-5.2,0.5-6,0.8-6.8,2.8c-0.5,1.1-0.5,1.7,0,2.8c0.9,2.3,2.8,2.8,7.9,2.3c5.9-0.6,9.1-1.5,14.2-4c8-3.9,13.8-10.9,16-19.5c1.1-4.2,1.1-11.9,0-15.4l-0.8-2.7l2-2.1c2.8-3,3.8-4.6,5.2-8.2c1.6-4.2,1.9-9.5,0.9-13.7c-0.8-3.6-1.5-4.9-3.7-7.8l-1.6-2.1l1.2-3.1c1.1-2.9,1.2-3.9,1.4-10.8c0.1-6.7,0-8.2-0.8-11.5c-2-7.9-7.8-17.6-14.3-23.5c-3-2.8-9.9-7.4-11-7.4c-0.3,0-0.6-0.2-0.6-0.4c0-0.6,5.1-24.6,5.2-24.8c0,0,1.2-0.6,2.5-1.1c2.7-1.2,5.4-3.8,6.5-6.4c1.8-4.2,0.3-10.1-3.2-13.2c-4.6-3.9-10.9-3.9-15.5,0c-5.3,4.5-5.3,12.7,0,17.5l1.9,1.7l-2.4,11.6c-1.3,6.4-2.5,11.9-2.6,12.4c-0.2,0.8-2.9,0.8-48.1,0.8c-45.2,0-47.9,0-48.2-0.8c-0.1-0.4-1.3-6-2.6-12.4L74.8,40l1.9-1.7c2.7-2.4,4-5.3,3.9-8.8C80.5,21.3,72.7,15.7,65,18.4z M70.6,26c1.4,0.5,2.5,2.8,2.2,4.4c-0.3,1.5-2.2,3-3.8,3c-1.6,0-3.5-1.5-3.8-3c-0.3-1.6,0.8-3.9,2-4.4C68.6,25.4,69.1,25.4,70.6,26z M188.7,26c1.4,0.5,2.5,2.8,2.2,4.4c-0.1,0.6-0.7,1.5-1.4,2c-3.8,3-8.4-2.3-4.9-5.8C185.7,25.4,186.8,25.2,188.7,26z"/><path fill="#000000" d="M143,82.8c-16.2,9.5-42.7,16.1-68.3,17.3c-7.1,0.3-8.8,0.8-9.3,2.9c-0.9,3.3,0.7,5.1,4.7,5.3l2.8,0.1l0.3,5c0.7,11.2,4.6,30.5,8.9,43.9c4.6,14.2,14.7,28.5,24.7,35c7.1,4.5,13.2,6.4,21.1,6.4c14.7,0,26.9-7.7,37-23.2c5.6-8.7,9-17.2,12.5-31.5c2.8-11.3,5.4-26.3,5.4-31c0-1.7,0-1.7,2.3-1.1c3.2,1,5.7-0.7,5.6-3.8c0-2.2-1.2-3-6.9-4.8c-15.9-5-28-12.4-32.3-19.7C149.6,80.3,147.6,80.1,143,82.8z M149.4,93.3c5.1,5.2,11.8,9.4,20.7,13.2l4.7,2l0.1,2c0.5,6.5-4.1,30.1-8.4,43.7c-1.8,5.7-5.2,12.5-8.8,18.1c-2.8,4.2-10.7,12.1-14.2,14.2c-9.8,5.7-21.3,5.7-31.1,0c-3.8-2.2-11.5-10-14.5-14.7c-3.3-5-6.4-11.3-7.9-15.9c-4.2-12.6-9-36.3-9-44.8v-3.2l8.4-1.1c14.3-1.8,26.7-4.5,37.8-8.3c5.9-2.1,13.9-5.4,16.7-7.2c1-0.6,1.9-1.2,2.1-1.2C146.1,90.1,147.7,91.6,149.4,93.3z"/><path fill="#000000" d="M105.3,116.4c-7.3,1.8-11.3,8.4-6.5,11c1.5,0.8,2.7,0.6,4.2-0.6l1.4-1.2v1.8c0,3.4,2.5,5.2,5.5,4c1.6-0.6,2.4-2.2,2.4-4.5v-1.4l0.9,1c2,2.1,4.9,1.7,6.4-0.9c0.9-1.6,0.4-3.3-1.6-5.4C115.3,117.1,109.5,115.4,105.3,116.4z"/><path fill="#000000" d="M144.7,116.4c-4.7,1-8.9,4.7-8.9,7.8c0,1.4,2.4,3.7,3.8,3.7c0.6,0,1.8-0.6,2.6-1.2l1.4-1.2v1.9c0,1.4,0.3,2.2,1.2,3c2.7,2.7,6.7,0.9,6.7-3v-1.9l1.4,1.2c1.8,1.5,3.8,1.6,5.3,0c3.6-3.6-1.9-9.7-9.2-10.5C147.7,116.1,145.8,116.1,144.7,116.4z"/><path fill="#000000" d="M113.7,160.6c-2.7,2.8-1.4,5.5,3.9,8.1c6.7,3.3,14.3,3.3,20.9,0c1.8-0.9,3.7-2.2,4.3-2.9c2.5-3.2-1-7.9-4.5-6c-5.3,3-6.2,3.3-10.2,3.3c-4,0-5.5-0.5-10.1-3.2C116.1,158.9,115.2,159.1,113.7,160.6z"/><path fill="#000000" d="M70.3,144.9c-1.2,1.2-1.3,1.6-1.3,4.6c0,2.7,0.2,3.4,1.1,4.5c0.8,1,1.5,1.3,2.8,1.3c1.3,0,2-0.3,2.8-1.3c0.9-1.1,1.1-1.8,1.1-4.5c0-3-0.1-3.4-1.3-4.6c-0.8-0.8-1.8-1.3-2.6-1.3C72.1,143.6,71.1,144.1,70.3,144.9z"/><path fill="#000000" d="M180.5,144.9c-1.2,1.2-1.3,1.6-1.3,4.6c0,2.7,0.2,3.4,1.1,4.5c0.8,1,1.5,1.3,2.8,1.3c1.3,0,2-0.3,2.8-1.3c0.9-1.1,1.1-1.8,1.1-4.5c0-3-0.1-3.4-1.3-4.6c-0.8-0.8-1.8-1.3-2.6-1.3S181.4,144.1,180.5,144.9z"/><path fill="#000000" d="M88.1,201.9c-2.7,2.3-0.9,6.7,2.6,6.7c3.3,0,5-4.8,2.4-6.9C91.5,200.5,89.6,200.5,88.1,201.9z"/><path fill="#000000" d="M162.8,201.9c-1.6,1.6-1.5,3.6,0.2,5.4c0.8,0.8,1.8,1.3,2.6,1.3c1.8,0,3.9-2.3,3.9-4.2c0-2-1.8-3.7-3.9-3.7C164.4,200.8,163.6,201.2,162.8,201.9z"/><path fill="#000000" d="M64.4,207.3c-13.2,1.5-26.6,6.1-36.2,12.5c-7.4,4.9-14.9,13.3-17.2,19.2c-1.3,3.2-1.2,4.1,0.4,5.7c2.7,2.6,4.7,1.7,7.4-3.6c5.5-10.8,18.7-19.6,35.5-23.9c5.1-1.3,14.1-2.5,17.9-2.5h2.6l2.1,3.3c2.8,4.4,13,14.6,17.8,17.8c7.1,4.7,14.9,7.8,23.2,9.4c1.7,0.3,6.4,0.6,10.5,0.6c8.1,0,12.2-0.7,19.2-3c12.3-4.1,23.9-13.1,31.8-24.8c1.2-1.8,2.5-3.3,2.8-3.3c5.4,0,18.3,2.7,25,5.3c13.9,5.4,27.4,15.1,31,22.4c1.9,3.9,4.4,4.7,6.8,2.3c1.7-1.7,1.7-2.9-0.1-6.5c-2.1-4.2-9.6-11.7-16.3-16.1c-14-9.2-32.9-15.3-47.6-15.3c-3.5,0-3.8,0.3-7.6,6.2c-4.9,7.7-15.4,16.8-23.7,20.6c-14.9,6.7-33.4,5.8-47.3-2.4c-7.2-4.2-14.7-11.4-19.4-18.5c-4.2-6.4-3.4-5.9-9.6-5.9C70.2,206.9,66.2,207.1,64.4,207.3z"/><path fill="#000000" d="M97.7,213.4c-2.9,2.4-0.7,7.1,3,6.5c2.1-0.3,3.3-1.8,3.3-3.8C104,212.8,100.3,211.2,97.7,213.4z"/><path fill="#000000" d="M153.1,213.5c-1.6,1.7-1.5,3.6,0.2,5.3c1.7,1.7,3.2,1.7,5.1,0.1c1.1-0.9,1.4-1.6,1.4-2.8C159.8,212.6,155.5,211,153.1,213.5z"/><path fill="#000000" d="M111.5,220.2c-1.3,0.6-2,1.8-2,3.9c0,3.2,4.2,4.7,6.5,2.4C119.1,223.1,115.7,218.5,111.5,220.2z"/><path fill="#000000" d="M141.1,220.2c-3.6,1.9-2.3,7.3,1.7,7.3c1.7,0,2.7-0.6,3.5-2.2c0.9-1.6,0.6-2.9-0.8-4.3C144.1,219.6,142.7,219.4,141.1,220.2z"/><path fill="#000000" d="M125.5,223.6c-1.9,1.8-1.5,4.8,0.7,6c1.8,1,3,0.9,4.3-0.4c1.8-1.6,2-3.6,0.5-5.3C129.4,222,127.1,221.9,125.5,223.6z"/></g></g></g>
</svg>