<?xml version="1.0" encoding="utf-8"?>
<!-- Svg Vector Icons : http://www.onlinewebfonts.com/icon -->
<!DOCTYPE svg PUBLIC "-//W3C//DTD SVG 1.1//EN" "http://www.w3.org/Graphics/SVG/1.1/DTD/svg11.dtd">
<svg version="1.1" xmlns="http://www.w3.org/2000/svg" xmlns:xlink="http://www.w3.org/1999/xlink" x="0px" y="0px" viewBox="0 0 256 256" enable-background="new 0 0 256 256" xml:space="preserve">
<metadata> Svg Vector Icons : http://www.onlinewebfonts.com/icon </metadata>
<g><g><path fill="#000000" d="M147.7,108.3h-39.3c0,49.2-29.5,49.2-29.5,68.8h98.3C177.2,158.5,147.7,157.5,147.7,108.3z"/><path fill="#000000" d="M164.4,78.8c0,20.7-20.7,2-36.4,2c-15.7,0-36.4,18.7-36.4-2c0-21.6,36.4-48.2,36.4-48.2S164.4,57.2,164.4,78.8z"/><path fill="#000000" d="M128,10c8.1,0,14.8,6.6,14.8,14.8c0,8.2-6.6,14.8-14.8,14.8c-8.1,0-14.8-6.6-14.8-14.8C113.2,16.6,119.9,10,128,10z"/><path fill="#000000" d="M187,29.7c8.1,0,14.8,6.6,14.8,14.8c0,8.2-6.6,14.8-14.8,14.8c-8.1,0-14.8-6.6-14.8-14.8C172.2,36.3,178.9,29.7,187,29.7z"/><path fill="#000000" d="M69,29.7c8.1,0,14.8,6.6,14.8,14.8c0,8.2-6.6,14.8-14.8,14.8s-14.8-6.6-14.8-14.8C54.2,36.3,60.9,29.7,69,29.7z"/><path fill="#000000" stroke="#070001" stroke-width="2" stroke-miterlimit="10" d="M59.2 196.8L196.8 196.8"/><path fill="#000000" stroke="#070001" stroke-width="2" stroke-miterlimit="10" d="M78.8 108.3L177.2 108.3"/><path fill="#000000" d="M206.7 246L49.3 246 78.8 196.8 177.2 196.8 z"/><path fill="#000000" d="M78.8 88.7L69 44.4 104.4 69 128 19.8 151.6 69 187 44.4 177.2 88.7 z"/></g></g>
</svg>