<?xml version="1.0" encoding="utf-8"?>
<!-- Svg Vector Icons : http://www.onlinewebfonts.com/icon -->
<!DOCTYPE svg PUBLIC "-//W3C//DTD SVG 1.1//EN" "http://www.w3.org/Graphics/SVG/1.1/DTD/svg11.dtd">
<svg version="1.1" xmlns="http://www.w3.org/2000/svg" xmlns:xlink="http://www.w3.org/1999/xlink" x="0px" y="0px" viewBox="0 0 256 256" enable-background="new 0 0 256 256" xml:space="preserve">
<metadata> Svg Vector Icons : http://www.onlinewebfonts.com/icon </metadata>
<g><g><g><path fill="#000000" d="M121.9,14.2c-2.1,2.3-9.2,10.3-15.7,17.8l-12,13.6H69.3c-22.7,0-25,0.1-26.5,0.9C41,47.4,39.9,49,39.9,51c0,1.7,21.8,43.6,23.4,45.1c1.2,1.1,1.2,1.1,0.5,3.4c-0.4,1.3-1.2,4.2-1.7,6.5c-1.6,7.2-4.8,14-13.6,29.5c-2.1,3.7-4.7,8-5.7,9.7c-2.5,3.9-2.4,5.5,0.1,10c10,17.3,28.1,30.1,51,36c3.3,0.9,6.1,1.6,6.2,1.7c0.1,0-1.2,2.8-2.8,6.1l-3,6l-9.9,0.3c-19.3,0.6-30.9,2.8-40.7,7.6c-7.7,3.8-13.2,8.6-17.5,15c-2.6,3.9-6,11.4-6,13.2c0,2.8,2.2,5,5.1,5c2.5,0,4.2-1.3,5.1-3.8c2.1-6.7,7.7-14,13.8-18c9.2-6,20-8.2,43.1-8.9c11.5-0.3,12-0.4,13.2-1.4c0.8-0.6,3.2-5,5.9-10.3l4.5-9.2l3.9,0.3c5,0.4,21.5,0.4,26.5,0l3.9-0.3l4.5,9.2c2.6,5.3,5.1,9.7,5.9,10.3c1.3,1.1,1.8,1.1,12.3,1.4c13.8,0.4,20.6,1,27.4,2.5c15.6,3.3,25.3,10.8,30.1,23.4c1.3,3.6,2.8,4.8,5.6,4.8c2.5,0,4.2-1.3,4.8-3.7c0.9-3.4-4.3-13.7-9.9-19.6c-8-8.6-17.8-13.2-32.8-15.8c-6.3-1.1-18.7-2-26.4-2H162l-3-6.1c-1.7-3.4-3-6.1-2.9-6.2c0.1,0,2.4-0.7,5.2-1.4c16.1-4.2,30-12,40.7-22.8c7.2-7.3,13.3-16.4,13.3-19.9c0-1.1-1.1-3.3-3.8-7.6c-10.8-17.4-15.2-26.5-17.9-36.7c-1.9-7.4-1.9-7.4-1-8.1c1.5-1.1,22.6-43.6,22.6-45.6c0-0.9-0.3-2.1-0.8-2.7c-1.7-2.4-2.2-2.5-28.7-2.5H161l-14.7-17.1c-8-9.4-15.1-17.4-15.6-17.8s-1.9-0.7-3-0.7C125.8,10,125.5,10.2,121.9,14.2z M142,39.1c9.4,11.1,14.2,16.3,15.1,16.6c0.9,0.3,9.6,0.5,23,0.5c11.9,0,21.6,0,21.6,0.1c0,0.1-3.4,6.9-7.6,15.3l-7.6,15.2L128,86.9l-58.5,0.1l-7.9-15.1c-4.3-8.3-7.8-15.2-7.8-15.4c0-0.2,9.7-0.3,21.7-0.3c14.9,0,22-0.1,22.8-0.5c0.6-0.3,7.5-7.8,15.3-16.6c7.8-8.9,14.2-16.1,14.4-16C128.2,23.1,134.5,30.3,142,39.1z M181,98.1c0.3,0.5,1.5,4.7,2.7,9.2c1.9,7.3,2.7,9.4,6.2,16.6c2.2,4.5,6.4,12,9.2,16.8l5.2,8.6l-2.1,3.2c-2.9,4.5-12.7,14.2-17.8,17.5c-19,12.6-45.6,17.6-73.7,14.1c-19.7-2.6-36.1-9.6-48-20.7c-3.7-3.4-9.3-10.2-10.4-12.5c-0.3-0.8,0.3-2.3,3.7-7.9c4.8-8.2,11.8-21.7,13.5-26.2c0.7-1.7,2-6.1,2.9-9.6c0.9-3.6,2-7.3,2.4-8.2l0.7-1.7H128C178.8,97.2,180.5,97.2,181,98.1z"/></g></g></g>
</svg>