<?xml version="1.0" encoding="utf-8"?>
<!-- Svg Vector Icons : http://www.onlinewebfonts.com/icon -->
<!DOCTYPE svg PUBLIC "-//W3C//DTD SVG 1.1//EN" "http://www.w3.org/Graphics/SVG/1.1/DTD/svg11.dtd">
<svg version="1.1" xmlns="http://www.w3.org/2000/svg" xmlns:xlink="http://www.w3.org/1999/xlink" x="0px" y="0px" viewBox="0 0 256 256" enable-background="new 0 0 256 256" xml:space="preserve">
<metadata> Svg Vector Icons : http://www.onlinewebfonts.com/icon </metadata>
<g><g><g><path fill="#000000" d="M121.4,10.9c-6.2,2-11.3,6.5-14.1,12.5c-1.3,2.9-1.6,4.2-1.8,8c-0.3,5.7,0.6,9,3.6,13.3c1.2,1.8,3.3,4.1,4.7,5.3l2.6,2.1l-2.6,1.5c-3.1,1.8-7.2,5.4-9,7.9c-0.7,1-1.5,1.8-1.8,1.8c-0.3,0-1.3-0.7-2.2-1.5c-0.9-0.9-2.1-1.5-2.6-1.5c-0.5,0-2,0.9-3.3,2c-3.3,2.7-7,4.1-11.3,4.1c-5.4,0.1-9-1.3-12.9-4.7c-1.8-1.5-3.1-1.8-4-0.8c-1,1-0.7,2.7,0.7,4c2.1,2,7.4,9,9.7,12.8c2.7,4.5,5.2,10.8,6.6,16.3c1.1,4.2,2.1,12.5,1.7,13.2c-0.1,0.3-2.2,0.4-4.6,0.4c-4.6,0-5.6,0.4-5.6,2.3c0,1.5,0.8,2,3.4,2.4c2.9,0.4,4.5,1.6,5.7,4.2l1,2.2L80,165c-4.8,41.7-5.4,46.6-6.5,48.7c-1.7,3.3-4.4,5-8.7,5.6c-1.9,0.3-4.7,0.7-6.2,1c-8.3,1.5-16.2,8.4-18.7,16.7c-1.1,3.5-1.3,7.5-0.4,8.4c0.9,0.9,176.1,0.9,176.9,0c0.9-0.9,0.8-4.9-0.4-8.4c-2.5-8.2-10.4-15.2-18.5-16.6c-1.6-0.3-4.5-0.7-6.4-1c-4.3-0.6-7-2.4-8.7-5.6c-1.2-2.2-3.4-19.9-11.5-92.7c-0.2-1.8,0-3,0.7-4.6c1.2-2.6,2.8-3.8,5.7-4.1c2.6-0.4,3.4-0.9,3.4-2.4c0-1.9-1-2.3-5.6-2.3h-4.5l0.3-3.2c1.6-14.9,6.9-27.2,16.6-38c2.8-3.2,3.3-4.4,2.2-5.5c-1-1-2.3-0.7-4.1,0.9c-6.9,6.1-17.4,6.2-24.4,0.4c-1.2-1.1-2.5-1.9-3-1.9c-0.4,0-1.8,0.8-3,1.8c-1.3,1-2.5,1.8-2.7,1.8c-0.2,0-1-0.9-1.8-2.1c-1.9-2.7-5.7-6.1-9.1-8.1l-2.8-1.6l2-1.4c6.5-4.7,10.3-13.3,9.2-21.1c-1.2-8.7-8.4-16.7-16.8-18.9C129.8,9.7,124.8,9.8,121.4,10.9z M136,16.2c6.3,3.2,9.7,8.9,9.8,16.4c0,3.8-0.2,4.7-1.6,7.5c-1.8,3.8-4.9,7.1-8.2,8.7c-1.9,0.9-3.3,1.1-7.6,1.2c-6.9,0.1-9.3-0.6-12.9-3.9c-3.2-3-4.9-6-5.7-10.3c-1.4-7.1,2-15.1,7.9-18.6c4-2.3,5.6-2.7,10.7-2.5C132.5,14.8,133.7,15,136,16.2z M138.3,56.7c4,1.9,10.3,7.8,9.3,8.8c-0.3,0.3-2.4,0.6-4.9,0.6c-3.7,0-4.8-0.2-7.1-1.3c-1.6-0.7-3.6-2-4.6-2.9c-1-0.9-2.3-1.6-2.9-1.6c-0.6,0-2.1,0.9-3.4,2c-3.9,3.4-10,4.8-15.7,3.7c-1.6-0.4-1.6-0.4-0.8-1.7c2.2-3.4,6.1-6.5,10.6-8.4c2.3-0.9,3.5-1.1,9.4-1C134.6,55.1,135,55.2,138.3,56.7z M101.3,67.5c7.4,4.5,17.1,4.4,24.4-0.2l2.4-1.5l1.9,1.3c7.1,4.7,17.1,4.8,25.3,0.4c3.2-1.7,3.5-1.8,4.3-1c3,2.7,11,4.7,16.4,4.1l3-0.4l-1.5,2.2c-5.4,7.9-9.8,20.6-10.7,31.1l-0.3,3.8h-38.2H90l-0.2-2C89.2,94.5,85.1,82,79.4,73l-1.6-2.6l4.8,0.1c5.4,0.1,10-1.1,13.2-3.4c0.9-0.7,1.9-1.2,2.2-1.3C98.2,65.8,99.7,66.6,101.3,67.5z M167.8,114.8l-1.3,2.8H128l-38.5,0.1l-1.3-2.8l-1.3-2.8H128h41.1L167.8,114.8z M166.5,122.9c0.2,0.4,2.4,19,4.9,41.4l4.6,40.7l-24.1,0.2c-13.2,0-34.9,0-48.1,0l-24.1-0.2l4.6-40.7c2.6-22.3,4.7-41,4.9-41.3C89.8,122,166.2,122,166.5,122.9z M177.3,212.3c0.7,2.2,2.6,5.6,3.6,6.2c0.3,0.2,0.5,0.5,0.5,0.8c0,0.3-20.5,0.5-53.7,0.5H74l1.3-1.4c1.4-1.4,3.9-6.3,3.9-7.5c0-0.5,10.1-0.6,48.7-0.6h48.8L177.3,212.3z M201.7,226c5.4,2.7,9.6,8,10.6,13.5l0.4,1.9H128H43.3l0.3-1.8c1.1-6.6,7.4-13.2,14.1-14.9c0.9-0.2,32.9-0.3,71.3-0.3l69.7,0.1L201.7,226z"/></g></g></g>
</svg>