<?xml version="1.0" encoding="utf-8"?>
<!-- Svg Vector Icons : http://www.onlinewebfonts.com/icon -->
<!DOCTYPE svg PUBLIC "-//W3C//DTD SVG 1.1//EN" "http://www.w3.org/Graphics/SVG/1.1/DTD/svg11.dtd">
<svg version="1.1" xmlns="http://www.w3.org/2000/svg" xmlns:xlink="http://www.w3.org/1999/xlink" x="0px" y="0px" viewBox="0 0 256 256" enable-background="new 0 0 256 256" xml:space="preserve">
<metadata> Svg Vector Icons : http://www.onlinewebfonts.com/icon </metadata>
<g><g><g><path fill="#000000" d="M90.2,12.6l-24,6l18,16.3c22.3,19.7,24,54.1,3.4,59.2c-14.6,3.4-14.6,4.3,0,5.2c28.3,1.7,8.6,84.9-30.9,127L39.6,246H128h88.4l-17.2-19.7c-21.5-23.2-45.5-78.1-45.5-104.7c0-12,6-21.5,15.4-24c13.7-3.4,13.7-4.3,0-5.1c-21.5-0.9-19.7-34.3,3.4-58.4c14.6-15.4,15.4-19.7,5.1-19.7c-7.7,0-24-1.7-37.8-3.4C126.3,9.2,104,10,90.2,12.6z"/></g></g></g>
</svg>