<?xml version="1.0" encoding="utf-8"?>
<!-- Svg Vector Icons : http://www.onlinewebfonts.com/icon -->
<!DOCTYPE svg PUBLIC "-//W3C//DTD SVG 1.1//EN" "http://www.w3.org/Graphics/SVG/1.1/DTD/svg11.dtd">
<svg version="1.1" xmlns="http://www.w3.org/2000/svg" xmlns:xlink="http://www.w3.org/1999/xlink" x="0px" y="0px" viewBox="0 0 256 256" enable-background="new 0 0 256 256" xml:space="preserve">
<metadata> Svg Vector Icons : http://www.onlinewebfonts.com/icon </metadata>
<g><g><g><path fill="#000000" d="M142.5,13.5l-4,3.5l-4.2-3c-2.3-1.7-4.4-2.9-4.6-2.8c-0.2,0.1-1.7,2-3.2,4.1c-1.6,2.2-2.9,3.9-3,3.9c-0.1,0-2.3-0.8-4.9-1.9c-2.6-1-4.8-1.7-5.1-1.5c-0.2,0.2-1.1,2.3-2.1,4.7c-0.9,2.4-1.8,4.5-1.8,4.5c0,0.1-2.4-0.2-5-0.6c-2.7-0.4-5-0.7-5.1-0.6c-0.1,0.1,2.3,3.5,5.3,7.6l5.5,7.4l-2.7,6.9c-6,15.6-10.5,24.9-16.5,33.7l-3.8,5.7l2.6,1.2c7.5,3.3,17.9,4.5,24.8,2.7c4.2-1.1,9.3-3.5,12.8-6c2.9-2,9.5-8.7,9.5-9.5c0-0.2-0.9-1.8-2-3.4c-4.2-6.1-5.9-11.3-5.9-18.2c0-5.3,0.9-9,3.4-14.4c1.5-3.2,2.1-4,3.1-4.2c1.8-0.5,14.5-0.9,16.2-0.6c1.5,0.3,1.6,0.4,2.7,4.3c0.6,2.2,2.2,7,3.6,10.6c1.3,3.7,2.4,6.7,2.4,6.7c0,0.1-1,0.4-2.1,0.7c-1.4,0.4-2.3,1-2.5,1.6c-0.2,0.6-0.6,3.4-0.9,6.3s-0.6,6-0.8,6.9l-0.3,1.6l-4-0.3c-2.2-0.1-5.2-0.6-6.7-0.9c-2.5-0.6-2.7-0.6-1.8,0c2.8,2.1,7.1,3.4,13,4.1c2.8,0.3,2.9,0.3,2.9-0.8c0-0.6,0.4-4.1,0.8-7.9l0.8-6.9l3-1.2l3-1.1l-1.8-4.4c-1-2.5-2.9-7.7-4.2-11.8l-2.4-7.3l3.1-9.5c1.7-5.2,3-9.6,2.9-9.7c-0.1-0.1-2.2,0.8-4.7,2l-4.5,2.2l-2.2-2.5c-1.2-1.4-2.8-3.2-3.5-4l-1.4-1.5L142.5,13.5z"/><path fill="#000000" d="M64.2,32.6c-2.3,0.9-4.6,3.9-4.6,5.9c0,0.8-0.2,0.9-2.2,0.7c-2.7-0.3-4.9,0.8-6.5,3c-2.1,3.1-0.9,8,2.4,9.7l1.4,0.7l-0.9,2.1c-1.2,2.9-0.7,5.1,1.5,7.4c2.1,2.1,4.4,2.7,7,1.7l1.8-0.7v13.4c0,7.4-0.2,13.2-0.4,13c-2.1-2.4-3.4-4.6-3.8-6.5c-1.9-7.9-7.6-12.9-15.4-13.8c-2.9-0.4-2.8-0.4-2,3.6c1.6,7.5,6.6,12.7,13.5,14c2,0.4,4.1,3,6.4,7.9c1.3,2.8,1.5,3.7,1.7,7.9l0.2,4.8h-2.1c-2.8,0-4.3,0.7-5.2,2.5c-0.9,1.8-0.9,2.4,0,4c0.6,1.1,0.6,1.5-0.1,3.2c-0.6,1.8-0.6,2.2,0,3.5c0.6,1.3,0.6,1.6,0,3c-0.7,1.3-0.7,1.7,0,3.5c0.6,1.8,0.6,2.2,0.1,3.2c-0.8,1.6-0.8,2.2,0,4c0.8,1.7,2.3,2.5,4.4,2.5c0.7,0,1.5,0.2,1.6,0.5c0.4,0.6-1.2,3.5-3.5,6.2l-1.9,2.3l1.5,1.6l1.5,1.6l1.5-1.8c0.8-1,2.1-2.7,2.8-3.8c0.7-1.2,1.3-2.2,1.4-2.3c0.1-0.1,5.9,5.5,12.9,12.4c7.8,7.9,12.8,12.5,13,12.2c4.8-7.6,16.1-24.2,16.4-24.2c0.2,0,6.5,5.4,14.1,11.9l13.7,11.9l3.4-0.9c2.6-0.7,4.8-1,9.4-1c7.1,0,11.4,0.8,18.4,3.9l4.5,1.9l2.6-1.8c1.4-1,5-4.1,7.9-6.9l5.3-5.1l-0.3,3.5c-0.4,5.6-4.4,13.8-6.8,13.8c-1.4,0-5.7,1.8-7.7,3.1c-3.7,2.4-6,6.7-7,12.4l-0.4,2.6l2.4-0.3c3.3-0.4,7.1-1.9,9.5-3.7c2.3-1.7,4.7-5.5,5.7-8.9c0.4-1.4,1.6-3.6,2.5-5.1l1.8-2.5v11.2c0,10.9,0,11.1-0.9,10.6c-1.5-0.8-4.7-0.6-6.4,0.5c-2.9,1.8-4.2,6-2.6,8.8c0.8,1.5,0.8,1.8,0,1.8c-0.4,0-1.4,0.6-2.3,1.4c-3.1,2.8-3.1,7.3,0,10.1c1.9,1.7,3.4,2.1,5.6,1.8c1.5-0.2,1.6-0.2,1.6,1c0,1.5,1.6,4,3.4,5.3c1.8,1.3,5.4,1.3,7.1,0c1.7-1.2,3.3-3.7,3.3-5c0-1,0.1-1.1,2.2-0.8c2.6,0.3,4.9-0.8,6.5-3c2.1-3.1,0.9-8-2.4-9.7l-1.4-0.7l0.9-2.1c1.2-2.9,0.7-5.1-1.5-7.4c-2.1-2.1-4.4-2.7-7-1.7l-1.8,0.7v-13.4c0-7.4,0.1-13.3,0.2-13.2c1.7,1.8,3.6,5,4,6.7c1.2,5.4,4.6,9.8,9.2,12c2.6,1.2,8.1,2.4,8.6,1.9c0.5-0.5-0.7-5.7-1.9-8.4c-2-4.4-6.9-8.3-11.9-9.2c-2-0.4-4.1-3-6.4-7.9c-1.3-2.8-1.5-3.7-1.7-7.9l-0.2-4.7h2.3c4.1,0,6.6-3.3,5-6.4c-0.6-1.2-0.6-1.6,0-3.4c0.6-1.8,0.6-2.2,0-3.5c-0.7-1.3-0.7-1.7,0-3.2c0.6-1.6,0.6-2,0-3.5c-0.6-1.5-0.6-1.8,0-2.9c0.9-1.6,0.9-2.2,0-4.1c-0.8-1.7-2.4-2.5-4.4-2.5c-0.7,0-1.5-0.2-1.6-0.5c-0.4-0.6,1.2-3.6,3.4-6.2l1.9-2.3l-1.5-1.5l-1.5-1.6l-1.5,1.8c-0.8,1-2.2,2.8-3,4l-1.5,2.3l-12.6-12.6c-6.9-6.9-12.7-12.5-12.8-12.4c-0.1,0.1-3.7,5.5-8.1,12.1c-4.3,6.5-8.1,11.9-8.3,12.1c-0.3,0.1-6.7-5.1-14.3-11.8l-13.8-12l-2.2,0.7c-8.4,2.8-18.7,1.8-29-2.6L84,86.9l-2.6,1.8c-1.4,1-5,4.1-7.9,6.9l-5.3,5.1l0.3-3.5c0.3-4,1.9-8.4,4.2-11.6c1.2-1.7,1.9-2.2,3.4-2.4c1-0.2,3-0.9,4.5-1.6c5-2.4,8.3-7.2,9.4-13.7l0.4-2.5h-1.5c-2.2,0-7.1,1.6-9.5,3.2c-2.9,1.8-5.2,5-6.5,9c-0.6,1.8-1.8,4.3-2.8,5.7l-1.8,2.5V74.6c0-10.9,0-11.1,0.9-10.6c1.6,0.8,4.8,0.6,6.5-0.6c2.8-1.9,4-5.9,2.5-8.6c-0.9-1.5-0.8-1.8,0-1.8c1.2,0,3.7-2.9,4.2-4.7c1.2-4.6-2.4-8.9-7.1-8.6c-2,0.1-2,0.1-2.3-1.6C72.6,33.9,67.9,31.1,64.2,32.6z M69,46.6c1.9,1.9,1.4,4.8-1,6.1c-1.5,0.8-2.7,0.6-4.2-0.6c-1.1-0.9-1.4-1.6-1.4-2.8C62.3,45.9,66.6,44.1,69,46.6z M78.6,111c0.4,0.6,0.4,1.1,0,1.6c-0.5,0.7-1.5,0.8-9.7,0.8h-9.2l-0.1-1.3c-0.1-0.7,0.1-1.5,0.5-1.7c0.3-0.2,4.5-0.4,9.3-0.3C77.1,110.2,78.2,110.3,78.6,111z M114.9,112.3c1.1,1.1,1.2,3.1,0.1,4.2c-0.9,1-3.2,1.1-4.4,0c-1.8-1.7-0.4-5.2,2.2-5.2C113.5,111.4,114.4,111.8,114.9,112.3z M78,117.8c0.2,0.5,0.3,1.2,0.2,1.6c-0.3,0.6-1.4,0.7-9.4,0.6c-8.3-0.1-9-0.2-9.2-1c-0.4-2.1-0.1-2.2,9.1-2.2C76.9,116.9,77.5,117,78,117.8z M196.4,123.6c0.1,0.7-0.1,1.5-0.5,1.7c-0.3,0.2-4,0.4-8.1,0.4c-6.2,0-7.6-0.1-8.2-0.7c-0.9-0.8-0.9-0.9-0.3-2.1c0.5-0.8,1-0.9,8.7-0.8l8.2,0.1L196.4,123.6z M77.3,125.4v1.4h-8.8c-8.1,0-8.8,0-8.9-0.8c-0.4-2.1-0.2-2.2,9-2.1l8.7,0.1V125.4z M129.8,125.7c0.8,0.6,1.2,1.4,1.2,2.3c0,1.3-1.8,3.2-3,3.2c-1.2,0-3-1.9-3-3.2s1.8-3.2,3-3.2C128.3,124.8,129.1,125.2,129.8,125.7z M196.3,130.5v1.4h-8.8c-8.1,0-8.8,0-8.9-0.8c-0.4-2.1-0.2-2.2,9-2.1l8.7,0.1V130.5L196.3,130.5z M76.1,130.7c0.4,0.2,0.6,1,0.5,1.7l-0.1,1.3h-8.3h-8.3l-0.1-1.3c-0.1-0.7,0.1-1.5,0.5-1.7c0.3-0.2,3.9-0.4,8-0.4S75.7,130.5,76.1,130.7z M196.3,137.4v1.4l-8.9,0.1c-8.4,0.1-8.9,0-9.3-0.8c-0.3-0.5-0.4-1.2-0.2-1.6c0.3-0.6,1.4-0.7,9.4-0.6l9,0.1L196.3,137.4L196.3,137.4z M145.4,139.4c1.8,1.7,0.4,5.2-2.2,5.2c-2.5,0-3.9-3.3-2.2-5.2C141.9,138.4,144.3,138.4,145.4,139.4z M196.4,143.8c0.1,0.7-0.1,1.5-0.5,1.7c-0.3,0.2-4.4,0.4-9.1,0.4c-8.8,0-9.7-0.2-9.7-1.8c0-1.7,0.8-1.8,10.1-1.8l9,0.1L196.4,143.8z M191.6,203.2c1.5,0.8,2.1,1.8,2.2,3.5c0,3.4-4.3,5.1-6.7,2.6C183.9,206.3,187.7,201.1,191.6,203.2z"/><path fill="#000000" d="M146.5,44.4c-0.9,0.7-0.9,0.7,0.2,1.6c1.3,1.1,2.9,1.1,4.7,0.1l1.5-0.8l-1.1-0.8C150.5,43.4,147.8,43.4,146.5,44.4z"/><path fill="#000000" d="M137.7,85.8c-0.6,0.6-1.2,1.3-1.2,1.6c0,0.6,2.1,2.8,2.8,2.8s2.8-2.1,2.8-2.8c0-0.6-2.1-2.8-2.8-2.8C139,84.6,138.3,85.2,137.7,85.8z"/><path fill="#000000" d="M149.1,85.2c-1.1,0.4-1.8,2.2-1.3,3.4c0.1,0.4,0.8,0.9,1.4,1.2c0.9,0.4,1.4,0.4,2.3-0.3C154.1,87.9,152,84.1,149.1,85.2z"/><path fill="#000000" d="M153.1,93.2c-3.1,4.7-5.9,8.5-6.1,8.5c-0.2,0-4.5-3.5-9.4-7.8l-9-7.8l-2.7,1.5c-2.5,1.4-2.7,1.6-1.9,2.3c4.7,4.5,22.9,19.8,23.1,19.4c0.1-0.2,3.5-5.3,7.4-11.1l7.1-10.7l-1.4-1.4l-1.4-1.4L153.1,93.2z"/><path fill="#000000" d="M101.8,157.5l-7.4,11.1l1.4,1.4l1.4,1.4l5.7-8.6c3.1-4.7,5.9-8.5,6.1-8.5c0.2,0,4.5,3.5,9.4,7.8l9,7.8l2.7-1.5c2.5-1.4,2.7-1.6,1.9-2.3c-1.4-1.3-22.7-19.8-22.8-19.8C109.2,146.4,105.8,151.4,101.8,157.5z"/><path fill="#000000" d="M104.4,166.5c-1.2,0.8-1.4,3-0.3,3.9c1.8,1.5,4.4,0.2,4.4-2.1c0-1-1.5-2.5-2.5-2.5C105.6,165.8,104.9,166.1,104.4,166.5z"/><path fill="#000000" d="M115.1,166.9c-0.6,0.6-1.2,1.3-1.2,1.6c0,0.3,0.5,1,1.2,1.6c0.6,0.6,1.3,1.2,1.6,1.2c0.3,0,1-0.5,1.6-1.2c0.6-0.6,1.2-1.3,1.2-1.6c0-0.3-0.5-1-1.2-1.6c-0.6-0.6-1.3-1.2-1.6-1.2C116.5,165.8,115.7,166.3,115.1,166.9z"/><path fill="#000000" d="M145.8,166.1c-6,0.8-12.3,3.2-17.2,6.8c-2.8,2-9.5,8.7-9.5,9.5c0,0.2,1,1.8,2.1,3.5c5.5,8.3,7.2,17.1,4.8,26c-1.2,4.9-3.9,10-5.5,10.6c-1.5,0.6-14.1,1.1-16.4,0.6c-1-0.2-1.7-0.6-1.7-1c0-0.9-3.4-11.2-5.4-16.5c-0.8-2.3-1.5-4.1-1.4-4.2c0.1,0,1.1-0.4,2.4-0.9c2.5-0.9,2.4-0.7,3.1-7.7c0.3-2.7,0.6-5.7,0.7-6.6l0.3-1.8l4.2,0.3c2.3,0.1,5.3,0.6,6.7,1c2.3,0.6,2.4,0.6,1.6-0.1c-1.9-1.5-5.7-2.9-9.6-3.6c-5.6-1-6.3-0.9-6.3,0.3c0,0.6-0.4,4.1-0.8,7.9l-0.8,6.8l-3,1.2l-3,1.1l2.4,6.4c1.3,3.5,3.2,8.8,4.1,11.8l1.7,5.3l-3.1,9.5c-1.7,5.2-3,9.6-2.9,9.7c0.1,0.1,2.1-0.7,4.4-1.9c2.3-1.2,4.3-2.1,4.6-2.1c0.2,0,1.9,1.8,3.7,3.9l3.3,3.9l4.1-3.5l4.1-3.5l4.2,3c2.3,1.7,4.3,3,4.4,3c0.1,0,1.6-1.9,3.3-4.2c1.7-2.3,3.1-4.1,3.2-4.1c0.1,0,2.3,0.8,4.8,1.9c2.6,1,4.8,1.7,5,1.5c0.2-0.2,1.1-2.4,2.1-4.8c1-2.4,1.8-4.4,1.9-4.5c0-0.1,2.4,0.2,5.1,0.6c2.7,0.4,5,0.7,5.1,0.6c0.1-0.1-2.3-3.5-5.3-7.6l-5.5-7.4l2.7-6.9c5.9-15.4,10.5-24.6,16.5-33.7l3.7-5.7l-2.6-1.2C160.6,167.1,150.8,165.4,145.8,166.1z"/><path fill="#000000" d="M104.6,209.9l-1.4,0.7l1.1,0.8c1.3,1.1,4.1,1.1,5.3,0.1c0.9-0.7,0.9-0.7-0.2-1.6C108.1,208.9,106.4,208.9,104.6,209.9z"/></g></g></g>
</svg>