<?xml version="1.0" encoding="utf-8"?>
<!-- Svg Vector Icons : http://www.onlinewebfonts.com/icon -->
<!DOCTYPE svg PUBLIC "-//W3C//DTD SVG 1.1//EN" "http://www.w3.org/Graphics/SVG/1.1/DTD/svg11.dtd">
<svg version="1.1" xmlns="http://www.w3.org/2000/svg" xmlns:xlink="http://www.w3.org/1999/xlink" x="0px" y="0px" viewBox="0 0 256 256" enable-background="new 0 0 256 256" xml:space="preserve">
<metadata> Svg Vector Icons : http://www.onlinewebfonts.com/icon </metadata>
<g><g><g><path fill="#000000" d="M123.3,10.6c-7.6,3.4-8.8,13.7-2,18.3c7.1,4.8,16.3-0.1,16.3-8.6c0-4.3-2.5-8-6.5-9.7C129.2,9.8,125.1,9.8,123.3,10.6z"/><path fill="#000000" d="M105.3,35c-1.1,1.3-2.7,2.9-3.3,3.6l-1.3,1.4l3,19l3,19l2.8,3.6c1.5,2,2.8,3.9,2.8,4.3c0,0.7,1.8,0.7,15.4,0.7c14.1,0,15.4,0,15.4-0.8c0-0.4,1.2-2.3,2.7-4.2l2.7-3.5l3.1-19.1l3-19.1l-3.3-3.6l-3.3-3.6h-20.3h-20.3L105.3,35z"/><path fill="#000000" d="M103.3,90.2c-1.4,0.8-1.6,1.3-1.6,3.5c0,3.5-1.1,3.4,25.7,3.4H151l0.9-1.2c1.3-1.7,1.3-3.7-0.2-5.1l-1.1-1.2h-23.2C111,89.6,104,89.8,103.3,90.2z"/><path fill="#000000" d="M113,104.1c0.2,2.9,0.4,6.1,0.6,7.2l0.2,2h13.9h13.8l0.3-4.1c0.1-2.2,0.4-5.4,0.6-7.2l0.3-3.1h-15h-15L113,104.1z"/><path fill="#000000" d="M105,116.4c-0.6,0.7-1,1.5-1,1.9c0,0.8,0.9,2.6,1.6,3c0.3,0.2,10,0.4,21.6,0.4c20.4,0,21.1,0,22-0.9c0.5-0.5,0.9-1.5,0.9-2.3s-0.4-1.8-0.9-2.3c-0.9-0.9-1.5-0.9-22.1-0.9h-21.2L105,116.4z"/><path fill="#000000" d="M113.6,125.1c-0.1,1.4-0.7,4.1-1.2,6c-0.6,1.9-1,4-1,4.5v1.1h16.3c13.4,0,16.3-0.1,16.3-0.7c0-0.3-0.5-2.7-1.2-5.2c-0.6-2.5-1.2-5.4-1.3-6.2l-0.1-1.6l-13.8-0.1l-13.8-0.1L113.6,125.1z"/><path fill="#000000" d="M105.7,139.7c-0.4,0.4-0.7,1.5-0.7,2.5c0,3.4-0.6,3.3,22.9,3.3c20.3,0,20.9,0,21.8-0.9c1.2-1.2,1.2-3.8,0.1-4.8c-0.8-0.7-3-0.8-22.1-0.8C108.9,139,106.3,139,105.7,139.7z"/><path fill="#000000" d="M110.5,147.8c0,1.1-4.4,24.3-6.3,33.3c-1.9,8.9-4.3,18.8-5.1,20.8c-0.3,0.8,1.2,0.8,28.5,0.8h28.9l-1.3-4.6c-1.9-6.6-4.8-19.9-7.8-36.3l-2.7-14.3l-17.1-0.1C116.5,147.4,110.5,147.5,110.5,147.8z"/><path fill="#000000" d="M93.9,205.2c-1.3,0.6-2,2.3-1.7,3.6c0.6,2.4,0.4,2.4,35.7,2.4c19.6,0,33.3-0.2,34-0.5c2.5-0.9,2.7-4.1,0.3-5.4c-1.2-0.6-5.7-0.7-34.3-0.7C106.2,204.7,94.6,204.8,93.9,205.2z"/><path fill="#000000" d="M88.3,213.5c-1.3,0.8-1.5,1.2-1.4,2.5c0.1,1.2,0.5,1.7,1.8,2.3C90.1,219,93,219,128,219c35,0,37.9,0,39.3-0.8c2-1,2.5-3.1,0.9-4.6c-0.9-0.8-2-0.9-39.7-1C90.3,212.5,89.8,212.5,88.3,213.5z"/><path fill="#000000" d="M98.8,220.7c1.2,0.6,1.5,1.1,1.5,2.1c0,1.4-1.4,2.7-3.1,2.7c-1,0-1,0.1-1.2,8c-0.1,4.4,0,8.6,0.2,9.3c0.2,0.7,1,1.6,1.6,2.1c1.2,0.8,3.1,0.8,29,1c30.4,0.1,30.7,0.1,32.1-2.5c0.7-1.2,0.7-2.7,0.6-9.7c-0.2-8.1-0.2-8.2-1.2-8.2c-1.5,0-3.1-1.3-3.1-2.5c0-1.1,1-2.3,2.3-2.7c0.4-0.1-13-0.3-29.8-0.3C99.5,220,97.3,220.1,98.8,220.7z"/></g></g></g>
</svg>